<svg width="27" height="28" viewBox="0 0 27 28" fill="none" xmlns="http://www.w3.org/2000/svg">
<path d="M0.0358887 13.8585C0.0358887 21.2623 6.03841 27.2648 13.4421 27.2648C20.8459 27.2648 26.8484 21.2623 26.8484 13.8585C26.8484 6.45479 20.8459 0.452271 13.4421 0.452271C6.03841 0.452271 0.0358887 6.45479 0.0358887 13.8585ZM13.7418 7.97008C13.838 8.06546 13.9144 8.17886 13.9668 8.30378C14.0191 8.42871 14.0463 8.56272 14.0469 8.69817C14.0474 8.83361 14.0213 8.96784 13.9699 9.09318C13.9186 9.21852 13.8431 9.33251 13.7476 9.42866L10.3755 12.8273H18.9851C19.2586 12.8273 19.5209 12.9359 19.7143 13.1293C19.9077 13.3227 20.0164 13.585 20.0164 13.8585C20.0164 14.132 19.9077 14.3943 19.7143 14.5877C19.5209 14.7811 19.2586 14.8898 18.9851 14.8898H10.3755L13.7476 18.2884C13.843 18.3846 13.9185 18.4987 13.9698 18.6241C14.0211 18.7495 14.0472 18.8838 14.0466 19.0193C14.046 19.1548 14.0188 19.2889 13.9664 19.4138C13.9139 19.5388 13.8374 19.6522 13.7412 19.7476C13.645 19.843 13.5309 19.9185 13.4055 19.9698C13.2801 20.0211 13.1458 20.0472 13.0103 20.0466C12.8748 20.046 12.7407 20.0187 12.6157 19.9663C12.4908 19.9139 12.3774 19.8374 12.282 19.7412L7.16505 14.5849C6.97337 14.3917 6.86581 14.1306 6.86581 13.8585C6.86581 13.5864 6.97337 13.3253 7.16505 13.1321L12.282 7.97588C12.3774 7.87952 12.4909 7.80293 12.6159 7.75047C12.7409 7.69802 12.8751 7.67074 13.0107 7.67021C13.1463 7.66967 13.2807 7.69588 13.4061 7.74733C13.5316 7.79879 13.6457 7.87448 13.7418 7.97008Z" fill="black"/>
</svg>
