<svg width="23" height="23" viewBox="0 0 23 23" fill="none" xmlns="http://www.w3.org/2000/svg">
<path d="M4.25049 20.9431H18.9172" stroke="#383838" stroke-width="1.5" stroke-linecap="round"/>
<path d="M17.3927 8.2115L18.0729 7.53316C18.3407 7.26538 18.5532 6.94747 18.6982 6.59757C18.8431 6.24767 18.9178 5.87265 18.9178 5.4939C18.9179 5.11516 18.8433 4.74012 18.6984 4.39019C18.5535 4.04026 18.3411 3.7223 18.0733 3.45445C17.8055 3.18661 17.4876 2.97414 17.1377 2.82916C16.7878 2.68418 16.4128 2.60954 16.0341 2.6095C15.6553 2.60945 15.2803 2.68401 14.9304 2.82891C14.5804 2.97381 14.2625 3.18621 13.9946 3.454L13.3145 4.13416C13.3145 4.13416 13.3997 5.57883 14.6739 6.853C15.948 8.12716 17.3927 8.21241 17.3927 8.21241L11.1438 14.4613C10.7203 14.8848 10.5095 15.0957 10.2757 15.2781C10.0001 15.4932 9.70401 15.6762 9.38745 15.8272C9.1207 15.9546 8.83654 16.049 8.26912 16.2378L5.86195 17.0408M13.3145 4.13325L7.06554 10.3831C6.64204 10.8066 6.43029 11.0174 6.24879 11.2512C6.03378 11.5262 5.84965 11.8241 5.6997 12.1394C5.57229 12.4062 5.47787 12.6903 5.28812 13.2577L4.48604 15.6649M4.48604 15.6649L4.29079 16.2525C4.24502 16.3895 4.23833 16.5365 4.27147 16.6771C4.30461 16.8177 4.37627 16.9463 4.47841 17.0485C4.58055 17.1506 4.70913 17.2223 4.84972 17.2554C4.99032 17.2885 5.13736 17.2818 5.27437 17.2361L5.86195 17.0408M4.48604 15.6649L5.86195 17.0408" stroke="#383838" stroke-width="1.5"/>
</svg>
