<svg width="14" height="16" viewBox="0 0 14 16" fill="none" xmlns="http://www.w3.org/2000/svg">
<g clip-path="url(#clip0_108_1563)">
<path d="M6.68684 7.65434C8.72394 7.65434 10.3749 6.00334 10.3749 3.96624C10.3749 1.92914 8.72394 0.278137 6.68684 0.278137C4.64974 0.278137 2.99874 1.92914 2.99874 3.96624C2.99874 6.00334 4.64974 7.65434 6.68684 7.65434ZM9.44715 8.59365L8.06988 14.1085L7.14785 10.1899L8.06988 8.57636H5.3038L6.22583 10.1899L5.3038 14.1085L3.92653 8.59365C1.87214 8.69162 0.232666 10.3714 0.232666 12.4489V13.6475C0.232666 14.4111 0.852152 15.0305 1.6157 15.0305H11.758C12.5215 15.0305 13.141 14.4111 13.141 13.6475V12.4489C13.141 10.3714 11.5015 8.69162 9.44715 8.59365Z" fill="white"/>
</g>
<defs>
<clipPath id="clip0_108_1563">
<rect width="12.9084" height="14.7524" fill="white" transform="translate(0.232666 0.278137)"/>
</clipPath>
</defs>
</svg>
